#!OML:ASF E:/inclinewalkrobotboard/Project1/Captureday1/Session1/subject1.ASF
:FULLY-SPECIFIED
:DEGREES
151
root 0 0 0 -2.9079142406005998 -2.0998785995740015 -0.9629583674625648
lowerback 11.454269793875454 -1.0446426202625698 -0.852734383056907
upperback 0.04610436921435279 -1.3741626285224655 1.9162004386337017
thorax -6.315731395059033 -0.6605882279696491 2.6397838386900396
lowerneck -17.217450631367736 -1.9377919366714234 -0.6237592006153113
upperneck 15.103536597660664 -1.960491030405012 -1.8876083273937667
head 7.507732863802177 -1.1697955782937168 -0.7745641158235723
rclavicle 3.287524928125122E-16 -1.5007539757550713E-15
rhumerus -31.60335607659527 -28.93796206818482 -80.78340368311228
rradius 17.638224193700147
rwrist 16.949502589822835
rhand -19.762403982119018 26.472566904258166
rfingers 7.125019999999986
rthumb 6.597951848604214 -3.597048076087731
lclavicle 9.729013838555603E-16 -1.7849006809698202E-15
lhumerus -30.841448954521915 -3.240798084314977 82.05273026580475
lradius 33.04948677279391
lwrist 10.320832947443028
lhand -28.380550671064725 25.79704273880932
lfingers 7.125020000000013
lthumb -1.7784123163297743 55.800324429646096
rfemur -14.192756822528771 5.440082863960772 28.16860577078554
rtibia 40.483918553118045
rfoot -9.31725753093354 -7.170501283667528
rtoes 4.699067093397481
lfemur -14.692891918337152 2.8711288738055423 -18.052381392754224
ltibia 43.47966482533075
lfoot 0.20811749814282798 -8.682672811868583
ltoes -5.201179616898983
152
root 0 0 0 -2.9860629016205733 -3.1418016020989654 -2.1146864552933375
lowerback 11.334718570726764 -0.7018203955286432 0.3681598649409501
upperback 0.07267043782799135 -0.7706246726110269 2.0183564310978195
thorax -6.226693290821113 -0.3905851818207997 1.9856415435733306
lowerneck -16.704737349887758 -1.97226449164607 -0.35047119174939756
upperneck 14.506624628710764 -1.993724398062722 -1.9444897785214266
head 7.1376601455354685 -1.188178397088346 -0.8361279618331867
rclavicle -7.74330506427292E-16 -3.903548677117171E-16
rhumerus -30.762986578367403 -28.008526088209223 -80.4789936023841
rradius 19.613281240819788
rwrist 17.140461917137824
rhand -19.93436992364617 26.495611100836065
rfingers 7.125019999999987
rthumb 6.433012247811565 -3.58106344180667
lclavicle 2.3401424596168904E-16 -7.453141336379006E-16
lhumerus -30.88707851632262 -2.886406621430139 82.27682106470809
lradius 32.366718593217726
lwrist 9.720585971908699
lhand -28.20775873443104 25.543703647516597
lfingers 7.125020000000013
lthumb -1.60696247215607 55.542171113122635
rfemur -12.319403982337644 5.928983333138291 29.40272790367705
rtibia 39.26300357248485
rfoot -10.5905754664581 -7.065942571275973
rtoes 4.689820419185587
lfemur -16.890382696726885 3.547300971341577 -17.25877599393469
ltibia 44.226211935366045
lfoot 0.6887618020208937 -8.705783938802577
ltoes -5.924378947906003
153
root 0 0 0 -2.615209768742545 -4.270755313117906 -4.751821279065397
lowerback 11.037987075922029 0.41141798133428925 3.0228861958008766
upperback -0.2022462563872939 1.036560984172212 2.146023238826547
thorax -6.299902921698677 0.4369638148734387 0.3658174394032858
lowerneck -17.22625692904004 -2.701619058807489 -0.7650913343502646
upperneck 13.959881073418728 -3.0235227877139366 -1.3928918843501676
head 6.996258177285789 -1.6621110684772786 -0.7149955339278051
rclavicle -2.581846741928752E-15 1.1694632510387329E-15
rhumerus -29.243403633531077 -26.44703975789779 -79.97228212081629
rradius 23.63909962956096
rwrist 17.48084343562433
rhand -20.566988647125083 26.655470573766074
rfingers 7.125019999999988
rthumb 5.8238994773046056 -3.47319020566718
lclavicle -1.1734786353367818E-15 5.995632208063951E-16
lhumerus -31.03008186449275 -2.3009634512688497 82.46509671093655
lradius 31.30276284478285
lwrist 8.93077293976485
lhand -28.040742797755776 25.50690982005262
lfingers 7.125020000000012
lthumb -1.4404204390601283 55.503502388479916
rfemur -9.885964249981106 6.4811947678945465 30.31266624872385
rtibia 36.264349834944724
rfoot -12.28415465888511 -6.939349515026616
rtoes 4.108442112413436
lfemur -18.199835906034018 3.6032239901867804 -16.6458046615776
ltibia 43.78528271474224
lfoot 0.19903745403902207 -7.947682356350612
ltoes -7.225108027621193
154
root 0 0 0 -1.9399526129799844 -4.942742140224109 -6.9788331789964415
lowerback 10.538095050517349 1.4594579146459248 5.168868387855085
upperback -0.7158376296714993 2.6643157568319866 1.9900934849999
thorax -6.549440313169249 1.1904866866793866 -1.245776218575109
lowerneck -17.547912223473023 -3.1930066896922904 -0.9414938635160373
upperneck 12.959989665922615 -3.86276011043909 -0.6750324134735421
head 6.791807990243713 -2.0078245193977358 -0.5286730240815711
rclavicle -2.6773702853283826E-15 1.9452866176134645E-15
rhumerus -28.34956799082927 -25.18882665132582 -79.75128716321191
rradius 25.851746191266912
rwrist 17.03378090788135
rhand -20.91743684379729 27.129597604117308
rfingers 7.1250199999999895
rthumb 5.483253520969905 -3.0299946274559133
lclavicle -9.900458723075506E-16 1.2438949949993984E-15
lhumerus -31.722735761023035 -1.63102938318718 82.12085856747501
lradius 30.723928361585163
lwrist 8.51959017570241
lhand -27.927708531224766 25.72437959357892
lfingers 7.125020000000009
lthumb -1.3293107610930672 55.72401128388533
rfemur -8.23768554889439 6.755459028988941 30.664873706462238
rtibia 34.32442175977458
rfoot -13.139442416950267 -6.766988136921866
rtoes 3.7829278062173834
lfemur -19.220959305019807 3.2258285949620733 -15.852363109957068
ltibia 42.78991557163152
lfoot -0.6948965339030941 -6.673276407309908
ltoes -9.496349051190048
155
root 0 0 0 -1.5071782417534498 -5.207703005955841 -7.890953378082022
lowerback 9.708147252874118 2.141505932789025 6.119585381830508
upperback -1.0951454415986241 3.6251292542854 1.5214504176360206
thorax -6.516768392537024 1.6415114953369818 -2.3899322782622336
lowerneck -17.311715118987966 -3.1687652267219537 -0.8674210511808024
upperneck 12.86916250837022 -4.137502122296862 0.14980335018114044
head 6.8103523803017945 -2.036171036334285 -0.2779872753406502
rclavicle -3.0565161711876014E-15 2.1639948345396557E-15
rhumerus -27.434044056691672 -23.549333772162175 -79.56931501364313
rradius 27.76032926324267
rwrist 16.07634145287823
rhand -21.082470353230317 27.791603125020274
rfingers 7.125019999999992
rthumb 5.320716522368327 -2.3734195350762306
lclavicle -1.0692744189616146E-15 1.1968357968301896E-15
lhumerus -33.0552186073504 0.40089256037520704 81.46916598970327
lradius 28.2878627577338
lwrist 6.727842761903883
lhand -27.619420342234356 26.11475537721667
lfingers 7.125020000000007
lthumb -1.0246023868177812 56.1120237332275
rfemur -6.892041710242718 6.889918803253904 30.788219124987258
rtibia 33.023225745729235
rfoot -13.578920838548159 -6.5414824512030085
rtoes 3.596703189858966
lfemur -20.607095896058492 2.326633879618867 -13.93855085539096
ltibia 40.606809919102915
lfoot -2.91383753103659 -3.7740716323057275
ltoes -16.212373530018198
